<svg width="1172" height="458" viewBox="0 0 1172 458" fill="none" xmlns="http://www.w3.org/2000/svg">
<line x1="22.5" y1="2.18557e-08" x2="22.5" y2="458" stroke="#8FFF00"/>
<line x1="334.5" y1="2.18557e-08" x2="334.5" y2="458" stroke="#8FFF00"/>
<line x1="46.5" y1="2.18557e-08" x2="46.5" y2="458" stroke="#8FFF00"/>
<line x1="382.5" y1="2.18557e-08" x2="382.5" y2="458" stroke="#8FFF00"/>
<line x1="286.5" y1="2.18557e-08" x2="286.5" y2="458" stroke="#8FFF00"/>
<line x1="862.5" y1="2.18557e-08" x2="862.5" y2="458" stroke="#8FFF00"/>
<line x1="358.5" y1="2.18557e-08" x2="358.5" y2="458" stroke="#8FFF00"/>
<line x1="910.5" y1="2.18557e-08" x2="910.5" y2="458" stroke="#8FFF00"/>
<line x1="70.5" y1="2.18557e-08" x2="70.5" y2="458" stroke="#8FFF00"/>
<line x1="430.5" y1="2.18557e-08" x2="430.5" y2="458" stroke="#8FFF00"/>
<line x1="94.5" y1="2.18557e-08" x2="94.5" y2="458" stroke="#8FFF00"/>
<line x1="502.5" y1="2.18557e-08" x2="502.5" y2="458" stroke="#8FFF00"/>
<line x1="406.5" y1="2.18557e-08" x2="406.5" y2="458" stroke="#8FFF00"/>
<line x1="934.5" y1="2.18557e-08" x2="934.5" y2="458" stroke="#8FFF00"/>
<line x1="454.5" y1="2.18557e-08" x2="454.5" y2="458" stroke="#8FFF00"/>
<line x1="958.5" y1="2.18557e-08" x2="958.5" y2="458" stroke="#8FFF00"/>
<line x1="118.5" y1="2.18557e-08" x2="118.5" y2="458" stroke="#8FFF00"/>
<line x1="526.5" y1="2.18557e-08" x2="526.5" y2="458" stroke="#8FFF00"/>
<line x1="142.5" y1="2.18557e-08" x2="142.5" y2="458" stroke="#8FFF00"/>
<line x1="574.5" y1="2.18557e-08" x2="574.5" y2="458" stroke="#8FFF00"/>
<line x1="478.5" y1="2.18557e-08" x2="478.5" y2="458" stroke="#8FFF00"/>
<line x1="982.5" y1="2.18557e-08" x2="982.5" y2="458" stroke="#8FFF00"/>
<line x1="550.5" y1="2.18557e-08" x2="550.5" y2="458" stroke="#8FFF00"/>
<line x1="1006.5" y1="2.18557e-08" x2="1006.5" y2="458" stroke="#8FFF00"/>
<line x1="166.5" y1="2.18557e-08" x2="166.5" y2="458" stroke="#8FFF00"/>
<line x1="622.5" y1="2.18557e-08" x2="622.5" y2="458" stroke="#8FFF00"/>
<line x1="190.5" y1="2.18557e-08" x2="190.5" y2="458" stroke="#8FFF00"/>
<line x1="670.5" y1="2.18557e-08" x2="670.5" y2="458" stroke="#8FFF00"/>
<line x1="598.5" y1="2.18557e-08" x2="598.5" y2="458" stroke="#8FFF00"/>
<line x1="1030.5" y1="2.18557e-08" x2="1030.5" y2="458" stroke="#8FFF00"/>
<line x1="646.5" y1="2.18557e-08" x2="646.5" y2="458" stroke="#8FFF00"/>
<line x1="1054.5" y1="2.18557e-08" x2="1054.5" y2="458" stroke="#8FFF00"/>
<line x1="214.5" y1="2.18557e-08" x2="214.5" y2="458" stroke="#8FFF00"/>
<line x1="718.5" y1="2.18557e-08" x2="718.5" y2="458" stroke="#8FFF00"/>
<line x1="238.5" y1="2.18557e-08" x2="238.5" y2="458" stroke="#8FFF00"/>
<line x1="790.5" y1="2.18557e-08" x2="790.5" y2="458" stroke="#8FFF00"/>
<line x1="694.5" y1="2.18557e-08" x2="694.5" y2="458" stroke="#8FFF00"/>
<line x1="1078.5" y1="2.18557e-08" x2="1078.5" y2="458" stroke="#8FFF00"/>
<line x1="742.5" y1="2.18557e-08" x2="742.5" y2="458" stroke="#8FFF00"/>
<line x1="1102.5" y1="2.18557e-08" x2="1102.5" y2="458" stroke="#8FFF00"/>
<line x1="262.5" y1="2.18557e-08" x2="262.5" y2="458" stroke="#8FFF00"/>
<line x1="814.5" y1="2.18557e-08" x2="814.5" y2="458" stroke="#8FFF00"/>
<line x1="310.5" y1="2.18557e-08" x2="310.5" y2="458" stroke="#8FFF00"/>
<line x1="886.5" y1="2.18557e-08" x2="886.5" y2="458" stroke="#8FFF00"/>
<line x1="766.5" y1="2.18557e-08" x2="766.5" y2="458" stroke="#8FFF00"/>
<line x1="1126.5" y1="2.18557e-08" x2="1126.5" y2="458" stroke="#8FFF00"/>
<line x1="838.5" y1="2.18557e-08" x2="838.5" y2="458" stroke="#8FFF00"/>
<line x1="1150.5" y1="2.18557e-08" x2="1150.5" y2="458" stroke="#8FFF00"/>
<line x1="1172" y1="407.502" x2="-1.81185e-07" y2="407.502" stroke="#8FFF00" stroke-width="1.00495"/>
<line x1="1172" y1="49.5025" x2="-1.81185e-07" y2="49.5024" stroke="#8FFF00" stroke-width="1.00495"/>
<line x1="1172" y1="73.5025" x2="-1.81185e-07" y2="73.5024" stroke="#8FFF00" stroke-width="1.00495"/>
<line x1="1172" y1="120.502" x2="-1.81185e-07" y2="120.502" stroke="#8FFF00" stroke-width="1.00495"/>
<line x1="1172" y1="25.5025" x2="-1.81501e-07" y2="25.5025" stroke="#8FFF00" stroke-width="1.00495"/>
<line x1="1172" y1="96.5025" x2="-1.81185e-07" y2="96.5024" stroke="#8FFF00" stroke-width="1.00495"/>
<line x1="1172" y1="169.502" x2="-1.81185e-07" y2="169.502" stroke="#8FFF00" stroke-width="1.00495"/>
<line x1="1172" y1="216.502" x2="-1.81185e-07" y2="216.502" stroke="#8FFF00" stroke-width="1.00495"/>
<line x1="1172" y1="145.502" x2="-1.81185e-07" y2="145.502" stroke="#8FFF00" stroke-width="1.00495"/>
<line x1="1172" y1="192.502" x2="-1.81185e-07" y2="192.502" stroke="#8FFF00" stroke-width="1.00495"/>
<line x1="1172" y1="264.502" x2="-1.81185e-07" y2="264.502" stroke="#8FFF00" stroke-width="1.00495"/>
<line x1="1172" y1="336.502" x2="-1.81185e-07" y2="336.502" stroke="#8FFF00" stroke-width="1.00495"/>
<line x1="1172" y1="240.502" x2="-1.81185e-07" y2="240.502" stroke="#8FFF00" stroke-width="1.00495"/>
<line x1="1172" y1="287.502" x2="-1.81185e-07" y2="287.502" stroke="#8FFF00" stroke-width="1.00495"/>
<path d="M1172 360.502L0 360.502" stroke="#8FFF00" stroke-width="1.00495"/>
<line x1="1172" y1="431.502" x2="-1.81501e-07" y2="431.502" stroke="#8FFF00" stroke-width="1.00495"/>
<line x1="1172" y1="311.502" x2="-1.81185e-07" y2="311.502" stroke="#8FFF00" stroke-width="1.00495"/>
<line x1="1172" y1="383.502" x2="-1.81185e-07" y2="383.502" stroke="#8FFF00" stroke-width="1.00495"/>
</svg>
