<svg width="382" height="264" viewBox="0 0 382 264" fill="none" xmlns="http://www.w3.org/2000/svg">
<line x1="11.5" y1="-0.0018939" x2="12.5" y2="263.998" stroke="#8FFF00"/>
<line x1="324.5" y1="1.99651e-08" x2="324.5" y2="264" stroke="#8FFF00"/>
<line x1="36.5" y1="-2.18557e-08" x2="36.5" y2="264" stroke="#8FFF00"/>
<line x1="372.5" y1="1.99651e-08" x2="372.5" y2="264" stroke="#8FFF00"/>
<line x1="276.5" y1="1.99651e-08" x2="276.5" y2="264" stroke="#8FFF00"/>
<line x1="348.5" y1="1.99651e-08" x2="348.5" y2="264" stroke="#8FFF00"/>
<line x1="60.5" y1="-2.18557e-08" x2="60.5" y2="264" stroke="#8FFF00"/>
<line x1="84.5" y1="1.99651e-08" x2="84.5" y2="264" stroke="#8FFF00"/>
<line x1="108.5" y1="1.99651e-08" x2="108.5" y2="264" stroke="#8FFF00"/>
<line x1="132.5" y1="1.99651e-08" x2="132.5" y2="264" stroke="#8FFF00"/>
<line x1="156.5" y1="1.99651e-08" x2="156.5" y2="264" stroke="#8FFF00"/>
<line x1="180.5" y1="1.99651e-08" x2="180.5" y2="264" stroke="#8FFF00"/>
<line x1="204.5" y1="1.99651e-08" x2="204.5" y2="264" stroke="#8FFF00"/>
<line x1="228.5" y1="1.99651e-08" x2="228.5" y2="264" stroke="#8FFF00"/>
<line x1="252.5" y1="1.99651e-08" x2="252.5" y2="264" stroke="#8FFF00"/>
<line x1="300.5" y1="1.99651e-08" x2="300.5" y2="264" stroke="#8FFF00"/>
<line x1="382" y1="36.5025" x2="-5.90554e-08" y2="36.5024" stroke="#8FFF00" stroke-width="1.00495"/>
<line x1="382" y1="60.5025" x2="-5.90554e-08" y2="60.5024" stroke="#8FFF00" stroke-width="1.00495"/>
<line x1="382" y1="107.502" x2="-5.90554e-08" y2="107.502" stroke="#8FFF00" stroke-width="1.00495"/>
<line x1="382" y1="12.5025" x2="-5.91583e-08" y2="12.5024" stroke="#8FFF00" stroke-width="1.00495"/>
<line x1="382" y1="83.5025" x2="-5.90554e-08" y2="83.5024" stroke="#8FFF00" stroke-width="1.00495"/>
<line x1="382" y1="156.502" x2="-5.90554e-08" y2="156.502" stroke="#8FFF00" stroke-width="1.00495"/>
<line x1="382" y1="203.502" x2="-5.90554e-08" y2="203.502" stroke="#8FFF00" stroke-width="1.00495"/>
<line x1="382" y1="132.502" x2="-5.90554e-08" y2="132.502" stroke="#8FFF00" stroke-width="1.00495"/>
<line x1="382" y1="179.502" x2="-5.90554e-08" y2="179.502" stroke="#8FFF00" stroke-width="1.00495"/>
<line x1="382" y1="251.502" x2="-5.90554e-08" y2="251.502" stroke="#8FFF00" stroke-width="1.00495"/>
<line x1="382" y1="227.502" x2="-5.90554e-08" y2="227.502" stroke="#8FFF00" stroke-width="1.00495"/>
</svg>
