<svg width="476" height="238" viewBox="0 0 476 238" fill="none" xmlns="http://www.w3.org/2000/svg">
<g clip-path="url(#clip0_573_6028)">
<path d="M305.619 144.634C273.413 144.634 241.207 144.634 209.017 144.634C208.622 144.634 208.227 144.618 207.832 144.634C205.161 144.792 204.608 145.25 204.545 147.936C204.45 152.124 204.276 156.343 204.577 160.515C204.829 164.102 203.707 166.694 201.068 169.128C196.343 173.489 191.808 178.056 187.383 182.718C185.313 184.899 183.117 185.752 180.114 185.736C159.081 185.626 138.047 185.673 117.03 185.689C116.113 185.689 115.181 185.752 114.264 185.689C111.91 185.484 110.377 186.305 109.207 188.502C107.754 191.22 105.494 193.148 102.286 193.843C97.5135 194.886 92.504 192.563 90.4654 188.186C88.2689 183.492 89.7543 178.357 93.705 175.18C97.9243 171.798 105.399 172.43 108.765 178.119C110.219 180.585 111.91 181.169 114.501 181.154C135.93 181.09 157.342 181.106 178.771 181.154C181.173 181.154 183.006 180.49 184.697 178.72C188.869 174.358 193.151 170.092 197.481 165.888C199.204 164.213 200.057 162.412 199.962 159.978C199.82 156.185 199.994 152.377 199.931 148.568C199.867 145.092 199.457 144.665 196.091 144.618C191.618 144.57 187.146 144.634 182.69 144.618C180.778 144.618 179.466 145.361 178.581 147.083C178.06 148.126 177.412 149.185 176.59 149.975C173.73 152.661 170.237 153.989 166.461 152.835C162.336 151.555 159.476 148.616 158.591 144.27C157.342 138.154 163.442 132.07 168.136 132.07C172.861 132.07 176.369 133.603 178.455 137.775C179.371 139.624 180.62 140.177 182.5 140.146C187.099 140.098 191.697 140.177 196.296 140.114C199.378 140.067 199.804 139.672 199.899 136.78C199.994 134.299 199.994 131.802 199.899 129.305C199.804 126.761 199.457 126.429 196.786 126.366C192.851 126.287 188.9 126.334 184.95 126.334C177.981 126.334 171.012 126.429 164.059 126.302C161.514 126.255 159.571 126.966 157.674 128.689C152.143 133.714 146.391 138.502 140.844 143.512C139.248 144.965 137.573 145.519 135.503 145.487C130.636 145.44 125.784 145.455 120.917 145.455C110.408 145.455 99.8838 145.519 89.3751 145.408C86.5148 145.376 84.5868 145.882 83.0698 148.758C81.0787 152.472 77.5073 154.036 73.1141 153.578C68.6735 153.12 65.8607 150.749 64.3594 146.735C62.4631 141.678 64.6597 136.148 69.6533 133.825C73.8884 131.849 79.4668 132.355 82.9434 137.285C83.4016 137.917 83.5755 138.818 84.1128 139.308C84.8397 139.972 85.7721 140.43 86.6728 140.825C87.1153 141.015 87.7158 140.888 88.2373 140.888C103.487 140.888 118.736 140.873 133.97 140.904C135.914 140.904 137.478 140.383 138.932 139.024C142.361 135.784 145.964 132.718 149.441 129.526C150.168 128.862 150.674 127.93 151.274 127.14C150.2 126.871 149.141 126.397 148.066 126.381C143.341 126.302 138.6 126.176 133.875 126.413C131.015 126.555 128.819 125.702 126.812 123.774C121.881 119.065 116.856 114.45 111.878 109.789C110.819 108.809 109.745 107.829 108.765 106.786C107.216 105.143 105.32 104.542 103.092 104.558C89.5489 104.59 76.0218 104.605 62.4789 104.558C60.0769 104.558 58.7021 105.475 57.5169 107.592C54.5934 112.823 48.936 114.45 43.6579 111.875C38.601 109.409 36.7679 103.499 38.8223 98.3633C42.0144 90.4304 52.5074 89.7508 56.7109 96.2299C58.9233 99.6433 61.3569 100.102 64.8335 100.07C77.8391 99.9436 90.8605 100.117 103.866 99.9594C107.153 99.9278 109.634 100.939 111.941 103.183C117.409 108.477 123.051 113.597 128.503 118.907C130.32 120.677 132.216 121.451 134.792 121.435C154.767 121.356 174.741 121.388 194.732 121.404C195.522 121.404 196.312 121.435 197.102 121.372C199.425 121.214 199.82 120.93 199.867 118.528C199.962 113.945 199.962 109.346 199.883 104.763C199.852 102.488 199.425 102.109 197.007 102.093C190.955 102.045 184.918 101.998 178.866 102.124C176.29 102.188 174.409 101.429 172.718 99.4379C170 96.2458 166.95 93.3381 164.185 90.1775C162.858 88.6605 161.356 87.9651 159.397 87.9651C152.57 87.981 145.727 87.9651 138.885 87.9177C136.957 87.9177 135.914 88.7079 134.934 90.4462C131.552 96.5144 123.999 97.905 118.784 93.4803C114.628 89.9405 113.095 83.7616 117.899 78.4835C122.798 73.0948 129.229 74.3906 132.564 77.8356C133.386 78.689 134.35 79.5107 134.824 80.5379C135.961 82.9715 137.874 83.4614 140.307 83.4456C146.739 83.3666 153.202 83.5878 159.618 83.335C162.952 83.2085 165.37 84.2199 167.488 86.7325C170.032 89.7351 172.892 92.4531 175.5 95.3924C176.732 96.783 178.123 97.4942 179.94 97.4942C185.455 97.4942 190.986 97.5416 196.501 97.4626C199.267 97.431 199.773 96.9569 199.836 94.2704C199.931 89.8141 199.867 85.3577 199.867 80.9013C199.867 79.084 199.061 77.7566 197.734 76.4766C193.104 72.0202 188.553 67.4691 184.065 62.8547C182.864 61.6221 181.615 60.99 179.924 61.0532C178.613 61.1006 177.301 61.0532 175.99 61.0532C148.256 61.0532 120.522 61.0532 92.7885 61.0532C92.3934 61.0532 91.9983 61.0848 91.6032 61.0532C89.4225 60.8635 87.9844 61.6063 86.9099 63.708C84.9345 67.6113 81.4579 69.1916 77.1438 69.0335C72.7823 68.8755 68.8316 65.6992 67.6622 61.4324C66.4296 56.9445 68.5155 51.698 72.4188 49.5014C76.5591 47.1468 81.616 47.6367 84.8239 50.7814C85.7563 51.6822 86.6728 52.7252 87.1943 53.8788C88.0161 55.7119 89.3909 56.3914 91.224 56.4388C92.5356 56.4862 93.8472 56.4862 95.1588 56.4862C123.288 56.4862 151.416 56.5494 179.545 56.423C182.99 56.423 185.503 57.3712 187.842 59.868C192.519 64.8458 197.386 69.634 202.301 74.359C203.866 75.8603 204.529 77.4248 204.482 79.5423C204.387 83.8723 204.434 88.2022 204.466 92.5321C204.498 97.4152 204.608 97.51 209.665 97.51C217.819 97.51 225.958 97.5574 234.112 97.4784C236.609 97.4468 238.616 98.1263 240.528 99.8014C243.578 102.472 246.959 104.779 250.104 107.355C251.495 108.477 252.633 108.43 253.928 107.308C256.899 104.732 260.012 102.298 262.873 99.5959C265.006 97.5732 267.282 96.5934 270.268 96.6724C276.305 96.8305 282.357 96.7672 288.41 96.6882C290.828 96.6566 292.724 97.2255 294.036 99.4853C294.873 100.939 296.106 102.188 297.244 103.452C298.571 104.937 299.488 104.874 300.72 103.199C301.953 101.508 303.138 99.7698 304.228 97.9841C305.445 95.9929 307.136 95.1554 309.475 95.2028C313.678 95.2976 317.882 95.2976 322.085 95.2028C324.345 95.1554 326.336 95.7085 327.711 97.4784C331.014 101.761 335.312 102.741 340.543 102.472C348.397 102.061 346.69 102.994 351.557 97.3994C353.975 94.6181 356.456 93.4013 360.043 93.6857C362.92 93.907 365.827 93.7805 368.719 93.7015C370.947 93.6383 372.844 94.2546 374.44 95.8349C374.993 96.388 375.609 96.8937 376.241 97.3519C377.411 98.1895 378.501 98.0789 379.228 96.7673C380.192 95.0448 381.14 93.3223 381.946 91.5366C382.973 89.2452 384.538 87.9652 387.145 88.2338C387.271 88.2338 387.414 88.2338 387.54 88.2338C398.223 88.0126 398.191 88.06 407.167 95.6769C413.077 100.686 419.114 105.522 425.071 110.452C425.877 111.116 426.604 111.89 427.442 112.523C428.943 113.66 429.544 115.146 429.386 116.995C429.37 117.248 429.386 117.516 429.386 117.785C429.48 124.032 427.01 128.936 421.974 132.497C417.376 135.768 412.793 139.055 408.289 142.437C406.203 144.017 404.038 144.728 401.383 144.728C369.446 144.665 337.509 144.681 305.572 144.681L305.619 144.634ZM314.674 121.356C349.503 121.356 384.332 121.356 419.161 121.356C420.346 121.356 421.532 121.356 422.701 121.309C424.139 121.246 424.977 120.376 424.819 119.033C424.676 117.816 424.266 116.489 423.586 115.493C422.875 114.45 421.706 113.692 420.678 112.854C413.883 107.292 406.93 101.887 400.324 96.1035C396.959 93.1484 393.34 92.2951 389.105 92.6586C387.493 92.8008 386.355 93.3539 385.644 94.7919C384.711 96.6724 383.7 98.5055 382.815 100.402C380.508 105.285 378.548 106.028 374.392 101.808C374.297 101.713 374.187 101.634 374.108 101.54C371.769 98.8532 368.846 98.0473 365.306 98.1895C355.777 98.6004 358.242 96.704 351.431 104.653C350.056 106.265 348.476 107.086 346.295 106.944C343.814 106.802 341.27 106.676 338.805 106.96C333.479 107.56 329.039 106.217 325.594 101.951C324.187 100.212 322.164 99.6591 319.936 99.7065C317.439 99.7698 314.927 99.8488 312.446 99.6749C309.585 99.4853 307.752 100.718 306.33 103.088C304.987 105.332 303.549 107.545 301.921 109.599C299.867 112.175 298.302 112.096 296.201 109.536C294.62 107.608 293.072 105.648 291.602 103.641C290.338 101.903 288.773 101.145 286.577 101.208C281.583 101.334 276.589 101.318 271.596 101.208C269.352 101.16 267.535 101.777 265.859 103.278C262.525 106.249 259.112 109.109 255.73 112.017C252.806 114.529 252.064 114.593 248.887 112.349C248.145 111.811 247.449 111.211 246.722 110.642C243.736 108.303 240.796 105.87 237.715 103.641C236.609 102.835 235.139 102.109 233.812 102.093C225.01 101.951 216.207 101.982 207.405 102.045C204.908 102.061 204.608 102.472 204.545 105.206C204.466 108.872 204.498 112.554 204.498 116.22C204.498 119.623 206.262 121.325 209.792 121.325C244.747 121.325 279.703 121.325 314.658 121.325L314.674 121.356ZM313.125 126.334C279.213 126.334 245.316 126.334 211.403 126.334C209.965 126.334 208.512 126.366 207.073 126.366C205.509 126.366 204.561 127.061 204.545 128.689C204.529 131.707 204.545 134.725 204.545 137.728C204.545 139.403 205.509 140.035 207.058 140.051C209.159 140.051 211.261 140.098 213.363 140.098C273.95 140.098 334.522 140.098 395.11 140.098C396.943 140.098 398.792 140.098 400.625 140.114C402.395 140.146 403.912 139.672 405.366 138.581C409.348 135.579 413.441 132.734 417.486 129.811C418.229 129.273 418.956 128.704 419.604 128.072C420.362 127.33 420.267 126.603 419.145 126.461C417.723 126.287 416.269 126.302 414.816 126.302C380.903 126.302 347.006 126.302 313.094 126.302L313.125 126.334ZM77.7759 64.3875C80.889 64.4666 83.8125 61.5747 83.8125 58.4299C83.8125 55.5222 80.9048 52.5829 78.0445 52.5829C74.9788 52.5829 72.166 55.222 72.0869 58.1455C71.9921 61.4324 74.5996 64.2927 77.7917 64.3717L77.7759 64.3875ZM174.852 142.753C174.899 139.276 172.75 136.874 169.479 136.732C165.955 136.574 163.458 138.96 163.426 142.484C163.395 145.677 165.986 148.426 168.989 148.395C172.197 148.363 174.82 145.85 174.852 142.753ZM74.4257 149.09C77.4756 149.043 80.2569 145.914 80.0831 142.753C79.9251 139.94 77.128 137.38 74.2677 137.459C70.9965 137.554 68.3891 140.035 68.3733 143.101C68.3575 146.277 71.2494 149.153 74.4257 149.09ZM42.7729 102.361C42.7571 105.538 45.2224 108.24 48.3039 108.382C51.4012 108.524 54.2141 105.617 54.1983 102.298C54.1983 99.0902 51.6541 96.6092 48.4303 96.6408C45.1434 96.6566 42.8046 99.0428 42.7729 102.377L42.7729 102.361ZM120.032 85.7054C120.064 89.1978 122.466 91.4101 126.132 91.3311C129.182 91.2679 131.537 88.5656 131.442 85.2629C131.347 81.9601 128.929 79.7636 125.532 79.89C122.134 80.0006 120.001 82.2604 120.032 85.7054ZM94.1001 183.65C94.0527 186.558 96.8813 189.434 99.8838 189.545C102.792 189.655 105.494 186.827 105.494 183.666C105.494 180.253 103.234 177.914 99.8838 177.851C96.8972 177.788 94.1317 180.569 94.0843 183.65L94.1001 183.65Z" fill="#8FFF00"/>
</g>
<line x1="166.5" y1="2.18557e-08" x2="166.5" y2="238" stroke="#8FFF00"/>
<line x1="214.5" y1="2.18557e-08" x2="214.5" y2="238" stroke="#8FFF00"/>
<line x1="238.5" y1="2.18557e-08" x2="238.5" y2="238" stroke="#8FFF00"/>
<line x1="262.5" y1="2.18557e-08" x2="262.5" y2="238" stroke="#8FFF00"/>
<line x1="286.5" y1="2.18557e-08" x2="286.5" y2="238" stroke="#8FFF00"/>
<line x1="310.5" y1="2.18557e-08" x2="310.5" y2="238" stroke="#8FFF00"/>
<line x1="334.5" y1="2.18557e-08" x2="334.5" y2="238" stroke="#8FFF00"/>
<line x1="358.5" y1="2.18557e-08" x2="358.5" y2="238" stroke="#8FFF00"/>
<line x1="22.5" y1="2.18557e-08" x2="22.5" y2="238" stroke="#8FFF00"/>
<line x1="94.5" y1="2.18557e-08" x2="94.5" y2="238" stroke="#8FFF00"/>
<line x1="382.5" y1="2.18557e-08" x2="382.5" y2="238" stroke="#8FFF00"/>
<line x1="46.5" y1="2.18557e-08" x2="46.5" y2="238" stroke="#8FFF00"/>
<line x1="406.5" y1="2.18557e-08" x2="406.5" y2="238" stroke="#8FFF00"/>
<line x1="118.5" y1="2.18557e-08" x2="118.5" y2="238" stroke="#8FFF00"/>
<line x1="190.5" y1="2.18557e-08" x2="190.5" y2="238" stroke="#8FFF00"/>
<line x1="70.5" y1="2.18557e-08" x2="70.5" y2="238" stroke="#8FFF00"/>
<line x1="430.5" y1="2.18557e-08" x2="430.5" y2="238" stroke="#8FFF00"/>
<line x1="142.5" y1="2.18557e-08" x2="142.5" y2="238" stroke="#8FFF00"/>
<line x1="454.5" y1="2.18557e-08" x2="454.5" y2="238" stroke="#8FFF00"/>
<line x1="476" y1="49.5025" x2="-1.81185e-07" y2="49.5025" stroke="#8FFF00" stroke-width="1.00495"/>
<line x1="476" y1="73.5025" x2="-1.81185e-07" y2="73.5025" stroke="#8FFF00" stroke-width="1.00495"/>
<line x1="476" y1="120.502" x2="-1.81185e-07" y2="120.502" stroke="#8FFF00" stroke-width="1.00495"/>
<line x1="476" y1="25.5025" x2="-1.81501e-07" y2="25.5025" stroke="#8FFF00" stroke-width="1.00495"/>
<line x1="476" y1="96.5025" x2="-1.81185e-07" y2="96.5025" stroke="#8FFF00" stroke-width="1.00495"/>
<line x1="476" y1="169.502" x2="-1.81185e-07" y2="169.502" stroke="#8FFF00" stroke-width="1.00495"/>
<line x1="476" y1="216.502" x2="-1.81185e-07" y2="216.502" stroke="#8FFF00" stroke-width="1.00495"/>
<line x1="476" y1="145.502" x2="-1.81185e-07" y2="145.502" stroke="#8FFF00" stroke-width="1.00495"/>
<line x1="476" y1="192.502" x2="-1.81185e-07" y2="192.502" stroke="#8FFF00" stroke-width="1.00495"/>
<defs>
<clipPath id="clip0_573_6028">
<rect width="146.08" height="391.464" fill="white" transform="translate(429.465 48) rotate(90)"/>
</clipPath>
</defs>
</svg>
